<svg xmlns="http://www.w3.org/2000/svg" viewBox="0 0 500 500"><g id="freepik--background-complete--inject-88"><rect y="382.4" width="500" height="0.25" style="fill:#ebebeb"></rect><rect x="52.46" y="391.92" width="33.12" height="0.25" style="fill:#ebebeb"></rect><rect x="171.14" y="389.21" width="55.42" height="0.25" style="fill:#ebebeb"></rect><rect x="91" y="397.86" width="19.19" height="0.25" style="fill:#ebebeb"></rect><rect x="385.46" y="391.8" width="43.19" height="0.25" style="fill:#ebebeb"></rect><rect x="437.56" y="391.8" width="6.33" height="0.25" style="fill:#ebebeb"></rect><rect x="277.21" y="395.31" width="46.84" height="0.25" style="fill:#ebebeb"></rect><path d="M237,337.8H43.91a5.71,5.71,0,0,1-5.7-5.71V60.66A5.71,5.71,0,0,1,43.91,55H237a5.71,5.71,0,0,1,5.71,5.71V332.09A5.71,5.71,0,0,1,237,337.8ZM43.91,55.2a5.46,5.46,0,0,0-5.45,5.46V332.09a5.46,5.46,0,0,0,5.45,5.46H237a5.47,5.47,0,0,0,5.46-5.46V60.66A5.47,5.47,0,0,0,237,55.2Z" style="fill:#ebebeb"></path><path d="M453.31,337.8H260.21a5.72,5.72,0,0,1-5.71-5.71V60.66A5.72,5.72,0,0,1,260.21,55h193.1A5.71,5.71,0,0,1,459,60.66V332.09A5.71,5.71,0,0,1,453.31,337.8ZM260.21,55.2a5.47,5.47,0,0,0-5.46,5.46V332.09a5.47,5.47,0,0,0,5.46,5.46h193.1a5.47,5.47,0,0,0,5.46-5.46V60.66a5.47,5.47,0,0,0-5.46-5.46Z" style="fill:#ebebeb"></path><rect x="149.93" y="124.27" width="62.86" height="100" transform="translate(362.72 348.54) rotate(180)" style="fill:#e0e0e0"></rect><rect x="146.14" y="124.27" width="64.99" height="100" transform="translate(357.28 348.54) rotate(180)" style="fill:#f5f5f5"></rect><rect x="135.93" y="147.22" width="85.42" height="54.1" transform="translate(4.37 352.91) rotate(-90)" style="fill:#fff"></rect><rect x="61.17" y="76.02" width="62.86" height="100" transform="translate(185.19 252.04) rotate(180)" style="fill:#e0e0e0"></rect><rect x="57.38" y="76.02" width="64.99" height="100" transform="translate(179.75 252.04) rotate(180)" style="fill:#f5f5f5"></rect><rect x="47.17" y="98.97" width="85.42" height="54.1" transform="translate(-36.14 215.89) rotate(-90)" style="fill:#fff"></rect><rect x="31.42" y="287.37" width="135.61" height="54.43" transform="translate(413.82 215.37) rotate(90)" style="fill:#f0f0f0"></rect><rect x="79.26" y="245.92" width="39.92" height="48.46" transform="translate(369.37 170.92) rotate(90)" style="fill:#e6e6e6"></rect><rect x="79.26" y="289.42" width="39.92" height="48.46" transform="translate(412.87 214.43) rotate(90)" style="fill:#e6e6e6"></rect><rect x="79.26" y="332.92" width="39.92" height="48.46" transform="translate(456.38 257.93) rotate(90)" style="fill:#e6e6e6"></rect><rect x="64.56" y="260.62" width="39.92" height="19.06" transform="translate(354.67 185.62) rotate(90)" style="fill:#e0e0e0"></rect><circle cx="101.31" cy="274.75" r="15.36" style="fill:#f0f0f0"></circle><path d="M123.45,259.38v30.73a15.37,15.37,0,0,1,0-30.73Z" style="fill:#f5f5f5"></path><rect x="64.56" y="304.12" width="39.92" height="19.06" transform="translate(398.17 229.12) rotate(90)" style="fill:#e0e0e0"></rect><rect x="102.59" y="326.05" width="13.2" height="7.56" transform="translate(218.38 659.66) rotate(180)" style="fill:#fafafa"></rect><rect x="115.79" y="326.05" width="5.57" height="7.56" style="fill:#f0f0f0"></rect><rect x="81.26" y="326.05" width="13.2" height="7.56" transform="translate(175.72 659.66) rotate(180)" style="fill:#fafafa"></rect><rect x="94.46" y="326.05" width="5.57" height="7.56" style="fill:#f0f0f0"></rect><rect x="91.69" y="318.48" width="13.2" height="7.56" transform="translate(196.58 644.53) rotate(180)" style="fill:#fafafa"></rect><rect x="104.89" y="318.48" width="5.57" height="7.56" style="fill:#f0f0f0"></rect><rect x="64.56" y="347.62" width="39.92" height="19.06" transform="translate(441.68 272.63) rotate(90)" style="fill:#e0e0e0"></rect><rect x="66.02" y="307.2" width="135.61" height="14.78" transform="translate(448.42 180.76) rotate(90)" style="fill:#f5f5f5"></rect><rect x="114.89" y="346.94" width="7.46" height="30.18" transform="translate(237.24 724.05) rotate(180)" style="fill:#f0f0f0"></rect><rect x="122.35" y="346.94" width="1.1" height="30.18" style="fill:#e0e0e0"></rect><rect x="105.39" y="349.33" width="4.66" height="27.79" transform="translate(215.43 726.44) rotate(180)" style="fill:#f0f0f0"></rect><rect x="110.05" y="349.33" width="4.84" height="27.79" style="fill:#e0e0e0"></rect><rect x="88.35" y="287.37" width="135.61" height="54.43" transform="translate(470.75 158.43) rotate(90)" style="fill:#f0f0f0"></rect><rect x="136.2" y="245.92" width="39.92" height="48.46" transform="translate(426.31 113.98) rotate(90)" style="fill:#e6e6e6"></rect><rect x="136.2" y="289.42" width="39.92" height="48.46" transform="translate(469.81 157.49) rotate(90)" style="fill:#e6e6e6"></rect><rect x="136.2" y="332.92" width="39.92" height="48.46" transform="translate(513.32 200.99) rotate(90)" style="fill:#e6e6e6"></rect><rect x="121.5" y="260.62" width="39.92" height="19.06" transform="translate(411.61 128.68) rotate(90)" style="fill:#e0e0e0"></rect><rect x="121.5" y="304.12" width="39.92" height="19.06" transform="translate(455.11 172.19) rotate(90)" style="fill:#e0e0e0"></rect><rect x="137.7" y="318.28" width="12.69" height="15.33" transform="translate(288.1 651.89) rotate(180)" style="fill:#fafafa"></rect><rect x="150.4" y="318.28" width="5.36" height="15.33" style="fill:#f0f0f0"></rect><rect x="153.7" y="312.71" width="17.3" height="20.9" transform="translate(324.7 646.32) rotate(180)" style="fill:#fafafa"></rect><rect x="171" y="312.71" width="7.3" height="20.9" style="fill:#f0f0f0"></rect><rect x="121.5" y="347.62" width="39.92" height="19.06" transform="translate(498.62 215.69) rotate(90)" style="fill:#e0e0e0"></rect><rect x="122.96" y="307.2" width="135.61" height="14.78" transform="translate(505.36 123.82) rotate(90)" style="fill:#f5f5f5"></rect><rect x="144.05" y="361.5" width="31.66" height="15.61" transform="translate(319.76 738.62) rotate(180)" style="fill:#f0f0f0"></rect><rect x="144.05" y="361.5" width="31.66" height="1.88" transform="translate(319.76 724.89) rotate(180)" style="fill:#e0e0e0"></rect><rect x="175.71" y="361.5" width="4.68" height="15.61" style="fill:#e0e0e0"></rect><rect x="143.57" y="358.92" width="32.14" height="3.71" transform="translate(319.28 721.55) rotate(180)" style="fill:#ebebeb"></rect><rect x="175.71" y="358.92" width="4.68" height="3.71" style="fill:#e0e0e0"></rect><rect x="135.22" y="280.24" width="39.35" height="9.86" transform="translate(309.79 570.35) rotate(180)" style="fill:#f0f0f0"></rect><rect x="174.57" y="280.24" width="5.82" height="9.86" style="fill:#e0e0e0"></rect><rect x="135.22" y="267.74" width="39.35" height="9.86" transform="translate(309.79 545.34) rotate(180)" style="fill:#f0f0f0"></rect><rect x="174.57" y="267.74" width="5.82" height="9.86" style="fill:#e0e0e0"></rect><rect x="235.65" y="91.12" width="201.25" height="210.63" style="fill:#e0e0e0"></rect><rect x="234.25" y="91.12" width="201.25" height="210.63" style="fill:#f5f5f5"></rect><rect x="235.87" y="102.12" width="198.02" height="188.64" transform="translate(531.31 -138.44) rotate(90)" style="fill:#fafafa"></rect><polygon points="355.91 295.44 373.02 97.43 392.22 97.43 375.11 295.44 355.91 295.44" style="fill:#fff"></polygon><polygon points="275.49 295.44 292.61 97.43 311.8 97.43 294.69 295.44 275.49 295.44" style="fill:#fff"></polygon><polygon points="379.83 295.44 396.94 97.43 408.27 97.43 391.16 295.44 379.83 295.44" style="fill:#fff"></polygon></g><g id="freepik--Shadow--inject-88"><ellipse id="freepik--path--inject-88" cx="250" cy="416.24" rx="193.89" ry="11.32" style="fill:#f5f5f5"></ellipse></g><g id="freepik--Character--inject-88"><path d="M130.46,386.33c-6,3.67-63.67,29.91-10.34,29.91H193.2s-23.41-3.91-13.91-11.33C147.46,384.83,130.46,386.33,130.46,386.33Z" style="fill:#CE19A1"></path><path d="M130.46,386.33c-6,3.67-63.67,29.91-10.34,29.91H193.2s-23.41-3.91-13.91-11.33C147.46,384.83,130.46,386.33,130.46,386.33Z" style="fill:#fff;opacity:0.6000000000000001"></path><path d="M258.64,176c-.23,3.66-.58,7.28-1,10.9s-.81,7.25-1.32,10.86l-.74,5.43-.84,5.42c-.55,3.62-1.2,7.23-1.87,10.87l-.19,1.1c-1.14,3.95-2.48,7.49-3.83,11s-2.83,7-4.32,10.45-3.09,6.82-4.74,10.18-3.36,6.68-5.26,10a5.79,5.79,0,0,1-10.73-3.78v-.06c.57-3.65,1.3-7.29,2-10.9s1.5-7.2,2.26-10.78l2.33-10.63c.76-3.49,1.49-7,2.05-10.25l-.2,1.1c.22-3.57.41-7.16.66-10.75l.35-5.4.4-5.39c.24-3.6.57-7.2.89-10.79s.7-7.2,1.15-10.76v0a11.51,11.51,0,0,1,22.9,2.19Z" style="fill:#803e3c"></path><path d="M229.44,256.33l3.06,1.11c5.72,4.92-1.88,11.18-1.88,11.18l-2.44,4.48a3.8,3.8,0,0,1-4.7,1.48l-4.73-1.68a4,4,0,0,1-2.75-4.8l1.46-4.21a7.84,7.84,0,0,1,2.1-3.2l3.3-3A6.46,6.46,0,0,1,229.44,256.33Z" style="fill:#CE19A1"></path><path d="M221.43,259.68c2.38-9.32,4-19.65,4-19.65s9.08-1.86,14.21,2.29,3.75,7.6,3.75,7.6-8.16,10.93-10.73,13C228.91,261.56,221.43,259.68,221.43,259.68Z" style="fill:#CE19A1"></path><path d="M239.75,154.73c-6.08,9.82-8.9,47.77-8.9,47.77,2,6.26,16.93,12.95,23.56,8.39,0,0,5.65-17,3.91-27.95C256.43,171,246.18,144.32,239.75,154.73Z" style="fill:#CE19A1"></path><g style="opacity:0.6000000000000001"><path d="M239.75,154.73c-6.08,9.82-8.9,47.77-8.9,47.77,2,6.26,16.93,12.95,23.56,8.39,0,0,5.65-17,3.91-27.95C256.43,171,246.18,144.32,239.75,154.73Z" style="fill:#fff"></path></g><path d="M233.88,213.8c5.85,3.72,15.55,5.71,19.2,3.37a15.86,15.86,0,0,0,4.09-11.8c-4.71-3.67-25.37-7.77-28.21-7.25a35.32,35.32,0,0,0-1,10.26A19.5,19.5,0,0,0,233.88,213.8Z" style="fill:#CE19A1"></path><path d="M233.88,213.8c5.85,3.72,15.55,5.71,19.2,3.37a15.86,15.86,0,0,0,4.09-11.8c-4.71-3.67-25.37-7.77-28.21-7.25a35.32,35.32,0,0,0-1,10.26A19.5,19.5,0,0,0,233.88,213.8Z" style="fill:#fff;opacity:0.5"></path><polygon points="255.91 389.72 272.94 389.88 271.55 410 257.31 409.88 255.91 389.72" style="fill:#7f3e3b"></polygon><polygon points="255.91 389.73 272.95 389.89 272.17 401.15 256.69 401.02 255.91 389.73" style="opacity:0.2"></polygon><path d="M279.25,327.33c9.83-23,27.77-63.34,12.92-84.57l-45.62,13.37s-6.07,56.7-4.47,71.87c2.6,24.64,12.67,69.56,12.67,69.56l19.5.05S280.69,355,279.25,327.33Z" style="fill:#263238"></path><path d="M285.8,311.74c3.94-9.84,7.88-20.87,10.13-31.6C286.28,276.17,282.23,289.79,285.8,311.74Z" style="opacity:0.2"></path><path d="M273.64,416.22h-4.5l-.93-1.5-2,1.52H243.67a8.41,8.41,0,0,1,1.09-4.66s7-1.58,10-4.2a2.36,2.36,0,0,1,2-.4c3,.59,10.9,1.89,15.42.19a.69.69,0,0,1,.91.66A52.15,52.15,0,0,0,273.64,416.22Z" style="fill:#CE19A1"></path><polygon points="340.22 387.16 355.46 381.71 365.19 400.72 352.46 405.3 340.22 387.16" style="fill:#7f3e3b"></polygon><polygon points="340.23 387.17 355.48 381.71 360.92 392.36 347.08 397.32 340.23 387.17" style="opacity:0.2"></polygon><path d="M337.76,318.6c1.37-25.82.55-76.07-11.12-85l-51.26,14s14.8,52.65,22.41,75.25c8.11,24.09,46,72.72,46,72.72l17.12-6.84S347.75,341.17,337.76,318.6Z" style="fill:#263238"></path><path d="M246.28,149.08a214.11,214.11,0,0,1,44.81-15.41,16,16,0,0,1,19,13.38c5.7,37.4,18.64,81.15,20,88.39,0,0-61.3,40.84-83.66,23.35-17.57-42.19-10.69-79.58-9-96.88A15.9,15.9,0,0,1,246.28,149.08Z" style="fill:#CE19A1"></path><path d="M246.28,149.08a214.11,214.11,0,0,1,44.81-15.41,16,16,0,0,1,19,13.38c5.7,37.4,18.64,81.15,20,88.39,0,0-61.3,40.84-83.66,23.35-17.57-42.19-10.69-79.58-9-96.88A15.9,15.9,0,0,1,246.28,149.08Z" style="fill:#fff;opacity:0.6000000000000001"></path><path d="M253.79,147.94a11.46,11.46,0,0,1,3.39-4.71,9.25,9.25,0,0,0-2-5.91l19.43-14.93c.85,7.89,1.06,13.22,5,15.77-.83,2.79-9.62,9.48-18.34,13.16C254,154.43,252.93,150.5,253.79,147.94Z" style="fill:#7f3e3b"></path><path d="M277.49,136c.1,2-9,11.73-18.67,16.22a37.24,37.24,0,0,1,11,4.25s10.05-6.27,11.79-20.44C279.88,134.84,277.49,136,277.49,136Z" style="fill:#fff"></path><path d="M257.18,143.23c-.68,1.46-5.5,8.53,1.64,9-5.28,3.37-6.36,7.48-6.36,7.48s-6.39-5.13,1.66-14.5A21.66,21.66,0,0,1,257.18,143.23Z" style="fill:#fff"></path><path d="M255.63,137.93,271.76,131c-3.16,7.37-10.22,12.26-14.59,11.31A9.34,9.34,0,0,0,255.63,137.93Z" style="opacity:0.2"></path><path d="M271.92,107c2.95,10.8,4.72,18.2.1,24.75-9.17,13-18.46,9.75-24.59,0-5.51-8.76-9.41-24.95-.44-32.59A15.42,15.42,0,0,1,271.92,107Z" style="fill:#7f3e3b"></path><path d="M253.31,129.87s3.3-.22,11.9-3.19c-1.86-2.73-4.27-3.11-8.67-1.54S253.31,129.87,253.31,129.87Z" style="fill:#263238"></path><path d="M253.72,129.82a2.23,2.23,0,0,1,.92-2,40.75,40.75,0,0,1,7.84-1.86,2.36,2.36,0,0,1,2.36.84A62.88,62.88,0,0,1,253.72,129.82Z" style="fill:#fff"></path><path d="M254.94,128a23.51,23.51,0,0,0,7.14-1.6,3.71,3.71,0,0,0,1.37-1.5c-1.63-1-3.75-.89-6.9.23a5.18,5.18,0,0,0-2.94,2.16A5.14,5.14,0,0,0,254.94,128Z" style="fill:#fff"></path><path d="M273.21,114.59c-5.59,3.24-8.17,2-8.17,2s2.92-6.31,2.25-9.22c-2.11,2.75-5.94,2-5.94,2s4.5-4.84,2.34-7.45c-6.88,5.62-21.25-.08-24.82,9.59-3.33-3.26-2.41-7.59-1.16-10.17-2.17.25-5.39.16-6.86-1C237,99,242.4,92.5,248.43,91.67c-3.64-4,.13-5.5.13-5.5s.16,5.41,7.07,3.91,14.13-2.91,14,2.42c9.51-.58,9.6,8.45,8.85,11.92C277.4,109.28,272.71,112.6,273.21,114.59Z" style="fill:#263238"></path><path d="M258.69,114.1a5.17,5.17,0,0,1,3.63-1.52A10.21,10.21,0,0,1,258.69,114.1Z" style="opacity:0.2"></path><path d="M259.11,114.94a4.25,4.25,0,0,1,3.53-.51A8.37,8.37,0,0,1,259.11,114.94Z" style="opacity:0.2"></path><path d="M244.28,119.51s-1.29-.59-1.65.24A2.24,2.24,0,0,0,244.28,119.51Z" style="opacity:0.2"></path><path d="M244.5,120.37s-1.09-.57-1.12.48A1,1,0,0,0,244.5,120.37Z" style="opacity:0.2"></path><path d="M243.67,111s6.77-3.37,10.91-3.36A61.39,61.39,0,0,1,243.67,111Z" style="opacity:0.2"></path><path d="M278.16,115.48a10,10,0,0,1-3,6.74c-2.39,2.19-4.94.06-5.4-3.26-.42-3,.32-7.72,3.26-8.62S278.32,112.24,278.16,115.48Z" style="fill:#7f3e3b"></path><path d="M256.11,115.67c.31.86.1,1.71-.46,1.91s-1.27-.33-1.58-1.19-.1-1.71.46-1.91S255.8,114.82,256.11,115.67Z" style="fill:#263238"></path><path d="M247.08,119.09c.31.85.11,1.71-.45,1.9s-1.27-.33-1.58-1.19-.11-1.71.45-1.9S246.77,118.23,247.08,119.09Z" style="fill:#263238"></path><path d="M249.87,118.71l2.31,4.48a1.71,1.71,0,0,1-.68,2.29,5.44,5.44,0,0,1-2.93.81C247.9,122.79,249.87,118.71,249.87,118.71Z" style="fill:#630f0f"></path><path d="M252.74,114.61a.5.5,0,0,0,0,.27.53.53,0,0,0,.63.42,5.37,5.37,0,0,0,3.89-3,.53.53,0,0,0-.3-.69.55.55,0,0,0-.7.3h0a4.25,4.25,0,0,1-3.1,2.33A.56.56,0,0,0,252.74,114.61Z" style="fill:#263238"></path><path d="M240,114.9a.5.5,0,0,0,.5,0,4.2,4.2,0,0,1,3.84-.33.53.53,0,0,0,.71-.25.53.53,0,0,0-.24-.71A5.25,5.25,0,0,0,240,114a.54.54,0,0,0-.19.73A.58.58,0,0,0,240,114.9Z" style="fill:#263238"></path><path d="M369.74,403l-3.49,1.24-1.73-1-1,2-21.08,7.47a8,8,0,0,1-1.44-4.43s5.1-3.1,7.06-6.6a.81.81,0,0,1,.64-.53c2.36-.18,10.37-2.83,14.24-5.75a1,1,0,0,1,1.39.36A39.88,39.88,0,0,0,369.74,403Z" style="fill:#CE19A1"></path><path d="M293.67,247.57c-.33,3.52.58,9,4.94,16.76,3.72,6.64,9.19,15.69,14,12.42L325.45,268c4.9-3.33-4-13.73-11.22-13.86-8.21-.14-4.49-7.28-8-9a14.49,14.49,0,0,0-7.7-1Z" style="fill:#fff;opacity:0.6000000000000001"></path><path d="M320.1,258.2c.09.05-.09-.07,0,0Z" style="fill:#fff"></path><path d="M325,264.26a10.92,10.92,0,0,0-2.68-4.15,5.13,5.13,0,0,0-4.95-1.4,26,26,0,0,0-5.94,2.25c-5.09,2.69-11.93.93-11.16,2.87.11.2.22.4.35.61,2.11,3.74,6.12,10.49,9.35,11.25a2,2,0,0,0,1.69-.34l12.84-8.73C324.78,266.44,325.5,265.94,325,264.26Z" style="fill:#fff"></path><rect x="291.99" y="243.24" width="7.64" height="4.01" rx="1.1" transform="matrix(0.83, -0.56, 0.56, 0.83, -86.7, 208.7)" style="fill:#263238"></rect><path d="M295.49,232.42a23.55,23.55,0,0,0,3.92,5.12c.54.53.29,1.47-.39,1.47a3.88,3.88,0,0,1-3-1.42c-.42.78-1.9.51-1.9.51S292.5,231.43,295.49,232.42Z" style="fill:#263238"></path><path d="M285,240.4h0s4.09,0,7.6,4.69a.7.7,0,0,0,1,.17l3.18-2.16a.69.69,0,0,0,.24-.86c-.86-1.87-3.39-8.14-.74-9.94l2.19-1.49a2.16,2.16,0,0,0,.57-3h0a2.16,2.16,0,0,0-3-.57l-8.75,5.94C284,235.4,283,237.42,285,240.4Z" style="fill:#CE19A1"></path><rect x="296.02" y="226.99" width="1.1" height="4.93" rx="0.39" transform="translate(-77.69 206.38) rotate(-34.2)" style="fill:#263238"></rect><path d="M318.49,231.78a1,1,0,0,1-.83-.44c-4.86-7.16-11-10.76-17.26-10.15a1,1,0,0,1-.2-2c7-.68,13.82,3.23,19.11,11a1,1,0,0,1-.26,1.39A1,1,0,0,1,318.49,231.78Z" style="fill:#CE19A1"></path><path d="M318.49,231.78a1,1,0,0,1-.76-.35c-4.35-5.09-11.41-7.67-16.8-6.13a1,1,0,0,1-.54-1.93c6.2-1.77,13.95,1,18.86,6.76a1,1,0,0,1-.76,1.65Z" style="fill:#CE19A1"></path><path d="M318.49,231.78a1.06,1.06,0,0,1-.61-.2c-6.29-4.79-11.42-5.64-16.13-2.69a1,1,0,0,1-1.07-1.7c5.52-3.45,11.37-2.56,18.41,2.79a1,1,0,0,1,.19,1.4A1,1,0,0,1,318.49,231.78Z" style="fill:#CE19A1"></path><path d="M302.9,232a1,1,0,0,1-.72-.31,1,1,0,0,1,0-1.42c4.11-4,10.71-4.08,16.8-.34a1,1,0,0,1,.33,1.37,1,1,0,0,1-1.38.33c-5.29-3.25-10.93-3.22-14.37.09A1,1,0,0,1,302.9,232Z" style="fill:#CE19A1"></path><path d="M318.49,231.78a1,1,0,0,1-.6-.2c-8-5.91-10.21-13.39-11.65-19.93a1,1,0,0,1,.76-1.2,1,1,0,0,1,1.19.76c1.37,6.2,3.45,13.26,10.89,18.77a1,1,0,0,1-.59,1.8Z" style="fill:#CE19A1"></path><path d="M318.49,231.78a1,1,0,0,1-.68-.27c-5.83-5.38-7.34-13.42-6.82-19.15a1,1,0,0,1,1.09-.91,1,1,0,0,1,.9,1.09c-.48,5.25.89,12.61,6.19,17.51a1,1,0,0,1-.68,1.73Z" style="fill:#CE19A1"></path><path d="M318.49,231.78a1,1,0,0,1-.82-.43c-5.07-7.25-5.72-13.13-2.06-18.5a1,1,0,0,1,1.39-.26,1,1,0,0,1,.26,1.38c-3.13,4.6-2.48,9.76,2.05,16.24a1,1,0,0,1-.25,1.39A1,1,0,0,1,318.49,231.78Z" style="fill:#CE19A1"></path><path d="M318.49,231.78a1,1,0,0,1-.87-.51c-3.5-6.24-3.1-12.82,1-16.78a1,1,0,1,1,1.39,1.45c-3.44,3.3-3.7,8.93-.66,14.35a1,1,0,0,1-.87,1.49Z" style="fill:#CE19A1"></path><path d="M342.19,255.45h0a1.29,1.29,0,0,1-1.81,0l-22.6-23.52,1.84-1.77,22.61,23.52A1.29,1.29,0,0,1,342.19,255.45Z" style="fill:#263238"></path><path d="M320.43,231l-1.8,1.73a1.2,1.2,0,0,1-1.69,0h0a1.21,1.21,0,0,1,0-1.7l1.8-1.73a1.2,1.2,0,0,1,1.69,0h0A1.2,1.2,0,0,1,320.43,231Z" style="fill:#fff"></path><path d="M243.63,253.23c-.58,2.82-.92,6.28,0,8.2a1.22,1.22,0,0,0,.7.64c17.28,6.09,58.52-1.43,88.57-22.38a1.22,1.22,0,0,0,.53-1c.09-2.72-1.88-7.91-2.88-10.35a1.21,1.21,0,0,0-1.77-.56c-6.58,4.16-31,21.45-59.06,25.28-14.92,2-22-.14-24.59-.79A1.21,1.21,0,0,0,243.63,253.23Z" style="fill:#CE19A1"></path><path d="M314,148l1,1.39.92,1.3c.6.87,1.16,1.74,1.73,2.61,1.15,1.74,2.21,3.52,3.26,5.31s2,3.63,3,5.48,1.9,3.73,2.76,5.67,1.72,3.88,2.5,5.88,1.49,4.05,2.14,6.16a66.17,66.17,0,0,1,2.8,13.49l.06.65a6.89,6.89,0,0,1,0,1.11,16.16,16.16,0,0,1-2.21,7.31,16.38,16.38,0,0,1-4.45,4.9,24.09,24.09,0,0,1-8.24,3.79,39,39,0,0,1-6.9,1.14c-2.18.18-4.27.25-6.33.22a94.19,94.19,0,0,1-11.92-1A96,96,0,0,1,282.64,211a5.77,5.77,0,0,1,1-11.3l.28,0c3.46-.34,7.13-.63,10.63-1s7-.85,10.26-1.49c1.64-.31,3.22-.64,4.7-1.06a27.3,27.3,0,0,0,3.9-1.37c1.05-.46,1.82-1.07,1.64-1.14s-.42.18-.82.75a4.59,4.59,0,0,0-.73,2l.09,1.77a58.64,58.64,0,0,0-2.93-9c-.63-1.55-1.34-3.11-2.09-4.67s-1.51-3.14-2.33-4.7c-1.66-3.11-3.4-6.25-5.27-9.33-.91-1.55-1.88-3.07-2.82-4.6l-1.44-2.27-1.36-2.1L295,161a11.5,11.5,0,0,1,19-13Z" style="fill:#803e3c"></path><path d="M298.93,134c23.6,11.34,32.84,50.38,32.84,50.38-2.82,7.32-15.74,10.53-23.6,8.55,0,0-14.42-19-18-29.48C286.26,152,287.9,128.7,298.93,134Z" style="fill:#CE19A1"></path><g style="opacity:0.6000000000000001"><path d="M298.93,134c23.6,11.34,32.84,50.38,32.84,50.38-2.82,7.32-15.74,10.53-23.6,8.55,0,0-14.42-19-18-29.48C286.26,152,287.9,128.7,298.93,134Z" style="fill:#fff"></path></g><path d="M317.19,195.5c6.79-1.4,15.14-6.72,16.14-10.94-.14-5.92-2.38-10.06-3.8-11.1-5.94.64-25.1,11.84-26.78,14.19a35.28,35.28,0,0,0,6.45,8A19.32,19.32,0,0,0,317.19,195.5Z" style="fill:#CE19A1"></path><path d="M317.19,195.5c6.79-1.4,15.14-6.72,16.14-10.94-.14-5.92-2.38-10.06-3.8-11.1-5.94.64-25.1,11.84-26.78,14.19a35.28,35.28,0,0,0,6.45,8A19.32,19.32,0,0,0,317.19,195.5Z" style="fill:#fff;opacity:0.5"></path><path d="M133.79,418.67h-.07c-12.56-.83-19.09-3.63-20-8.55-1.6-9.15,18.33-21,24.12-23.53a1,1,0,1,1,.8,1.84c-7.41,3.25-24.16,14.43-23,21.34.66,3.78,6.93,6.16,18.12,6.91a1,1,0,0,1-.07,2Z" style="fill:#CE19A1"></path><path d="M133.79,418.67h-.07c-12.56-.83-19.09-3.63-20-8.55-1.6-9.15,18.33-21,24.12-23.53a1,1,0,1,1,.8,1.84c-7.41,3.25-24.16,14.43-23,21.34.66,3.78,6.93,6.16,18.12,6.91a1,1,0,0,1-.07,2Z" style="fill:#fff;opacity:0.8"></path><path d="M177.62,418.67h0c-20.66-.31-25-6.15-24.94-11,0-6.89,9.52-14.31,16.17-14.34h0a1,1,0,0,1,0,2c-5.57,0-14.15,6.65-14.18,12.36,0,5.49,8.34,8.76,23,9a1,1,0,0,1,0,2Z" style="fill:#CE19A1"></path><path d="M177.62,418.67h0c-20.66-.31-25-6.15-24.94-11,0-6.89,9.52-14.31,16.17-14.34h0a1,1,0,0,1,0,2c-5.57,0-14.15,6.65-14.18,12.36,0,5.49,8.34,8.76,23,9a1,1,0,0,1,0,2Z" style="fill:#fff;opacity:0.8"></path><path d="M183.69,399.36l-1.38,7.52a1.57,1.57,0,0,1-2.1,1.17L127.62,387.8a1.55,1.55,0,0,1-.76-2.27l4-6.51a3.93,3.93,0,0,1,4.77-1.6L181.23,395A3.94,3.94,0,0,1,183.69,399.36Z" style="fill:#CE19A1"></path><path d="M302.4,153.49,289,174.9a1.83,1.83,0,0,1-2.51.58h0a1.82,1.82,0,0,1-.58-2.5l13.38-21.41a1.82,1.82,0,0,1,2.5-.58h0A1.82,1.82,0,0,1,302.4,153.49Z" style="fill:#CE19A1"></path><path d="M317.21,129.8a2.42,2.42,0,0,0-3.34.77L158.45,379.3l-4.4-1.7c-1.4-.54-3.13.1-4.54,1.67l-3.18,3.55,23.34,9,0-4.77c0-2.1-.85-3.74-2.25-4.28l-4.39-1.69L318,133.14A2.43,2.43,0,0,0,317.21,129.8Z" style="fill:#CE19A1"></path><path d="M317.21,129.8a2.42,2.42,0,0,0-3.34.77L158.45,379.3l-4.4-1.7c-1.4-.54-3.13.1-4.54,1.67l-3.18,3.55,23.34,9,0-4.77c0-2.1-.85-3.74-2.25-4.28l-4.39-1.69L318,133.14A2.43,2.43,0,0,0,317.21,129.8Z" style="fill:#fff;opacity:0.30000000000000004"></path><rect x="171.72" y="328.4" width="42.97" height="4.93" rx="1.02" transform="translate(-189.77 319.38) rotate(-58)" style="fill:#CE19A1"></rect><rect x="171.72" y="328.4" width="42.97" height="4.93" rx="1.02" transform="translate(-189.77 319.38) rotate(-58)" style="fill:#fff;opacity:0.5"></rect><path d="M289.53,201.72,288,209.11c-4.22,6.7-11.9-.21-11.9-.21l-5-1.83a4,4,0,0,1-2.27-4.65l1-5.17a4.16,4.16,0,0,1,4.56-3.6l4.59.86a8.25,8.25,0,0,1,3.65,1.68Z" style="fill:#CE19A1"></path><path d="M283.26,199a156.74,156.74,0,0,0,17.59-2.28c3.66,3.5,5.62,15.39,3.95,19.11-11.39.78-21.95-4.44-21.95-4.44S279.13,201.11,283.26,199Z" style="fill:#CE19A1"></path><path d="M136.46,399.27c-13.09-2.63-28.49-12.43-34.33-21.86l.85-.52c5.62,9.06,21,18.86,33.67,21.4Z" style="fill:#CE19A1"></path><path d="M189.93,407.9l-.12-1c5.73-.74,18.56-5,24.81-8.78l.52.86C208.79,402.81,195.76,407.15,189.93,407.9Z" style="fill:#CE19A1"></path><path d="M101.46,391.49A55.4,55.4,0,0,1,87.82,377l.86-.52A53.71,53.71,0,0,0,102,390.67Z" style="fill:#CE19A1"></path><path d="M202.56,400l-.37-.93a33.62,33.62,0,0,0,10.08-6.63l.7.71A34,34,0,0,1,202.56,400Z" style="fill:#CE19A1"></path><ellipse cx="75.89" cy="391.08" rx="8" ry="9.92" style="fill:#CE19A1"></ellipse><ellipse cx="75.89" cy="391.08" rx="8" ry="9.92" style="fill:#fff;opacity:0.8"></ellipse><ellipse cx="144.67" cy="357.38" rx="10.52" ry="13.05" style="fill:#CE19A1"></ellipse><ellipse cx="144.67" cy="357.38" rx="10.52" ry="13.05" style="fill:#fff;opacity:0.8"></ellipse><ellipse cx="108.61" cy="364.57" rx="4.72" ry="5.85" style="fill:#CE19A1"></ellipse><ellipse cx="108.61" cy="364.57" rx="4.72" ry="5.85" style="fill:#fff;opacity:0.8"></ellipse><path d="M196.15,386.31c-3.54.81-4.07,1.46-4.72,5.85-.65-4.39-1.18-5-4.72-5.85,3.54-.81,4.07-1.47,4.72-5.86C192.08,384.84,192.61,385.5,196.15,386.31Z" style="fill:#CE19A1"></path><path d="M196.15,386.31c-3.54.81-4.07,1.46-4.72,5.85-.65-4.39-1.18-5-4.72-5.85,3.54-.81,4.07-1.47,4.72-5.86C192.08,384.84,192.61,385.5,196.15,386.31Z" style="fill:#fff;opacity:0.8"></path><path d="M262.34,252.29c-4.1.26-9.42-1-10.29.4s-1.12,11.81,2.77,12.88,14.63-.15,19.73-.75c2.82-.33,2.56-14.29-1-14S266.9,252,262.34,252.29Z" style="fill:#CE19A1"></path><path d="M262.34,252.29c-4.1.26-9.42-1-10.29.4s-1.12,11.81,2.77,12.88,14.63-.15,19.73-.75c2.82-.33,2.56-14.29-1-14S266.9,252,262.34,252.29Z" style="fill:#fff;opacity:0.30000000000000004"></path></g><g id="freepik--Bucket--inject-88"><path d="M383,347.24a6.9,6.9,0,0,1,5.84,3.24,4.7,4.7,0,0,1,5-.67,7.91,7.91,0,0,1,9-2.11,12.78,12.78,0,1,1,0,14.69,7.83,7.83,0,0,1-3,.59,7.91,7.91,0,0,1-7-4.17,4.34,4.34,0,0,1-1,.1,4.73,4.73,0,0,1-3-1.12A6.89,6.89,0,1,1,383,347.24Z" style="fill:#CE19A1"></path><path d="M383,347.24a6.9,6.9,0,0,1,5.84,3.24,4.7,4.7,0,0,1,5-.67,7.91,7.91,0,0,1,9-2.11,12.78,12.78,0,1,1,0,14.69,7.83,7.83,0,0,1-3,.59,7.91,7.91,0,0,1-7-4.17,4.34,4.34,0,0,1-1,.1,4.73,4.73,0,0,1-3-1.12A6.89,6.89,0,1,1,383,347.24Z" style="fill:#fff;opacity:0.9"></path><path d="M377,359.62h48.14a2.55,2.55,0,0,1,2.52,2.9l-7.38,51.54a2.54,2.54,0,0,1-2.51,2.18h-33.4a2.54,2.54,0,0,1-2.51-2.18l-7.37-51.54A2.54,2.54,0,0,1,377,359.62Z" style="fill:#CE19A1"></path><path d="M377,359.62h48.14a2.55,2.55,0,0,1,2.52,2.9l-7.38,51.54a2.54,2.54,0,0,1-2.51,2.18h-33.4a2.54,2.54,0,0,1-2.51-2.18l-7.37-51.54A2.54,2.54,0,0,1,377,359.62Z" style="fill:#fff;opacity:0.6000000000000001"></path><path d="M375.55,362.17h51.12a2.56,2.56,0,0,0,2.55-2.55h0a2.56,2.56,0,0,0-2.55-2.56H375.55a2.56,2.56,0,0,0-2.55,2.56h0A2.56,2.56,0,0,0,375.55,362.17Z" style="fill:#CE19A1"></path><path d="M413.52,384.8c-13.35,0-28.8-10.84-34.45-24.17a1,1,0,1,1,1.75-.74c5.38,12.68,20.05,23,32.7,23,5.61,0,10.06-2.06,12.54-5.8,2.77-4.19,2.84-10.18.18-16.46a1,1,0,1,1,1.75-.74c2.91,6.87,2.79,13.52-.34,18.25C424.81,382.43,419.79,384.8,413.52,384.8Z" style="fill:#CE19A1"></path><path d="M411.34,386l9.67-1a3,3,0,0,0,2.58-2.65h0a1.93,1.93,0,0,0-2.21-2.13l-9.68,1a3,3,0,0,0-2.58,2.65h0A1.94,1.94,0,0,0,411.34,386Z" style="fill:#263238"></path></g></svg>